# xmcd
#
# Track frame offsets:
#  150
#  14465
#  30066
#  47267
#  69074
#  88695
#  107070
#  122929
#  144478
#  159624
#
# Disc length: 2365 seconds
#
# Revision: 0
# Processed by: cddbd v1.4PL0 Copyright (c) Steve Scherf et al.
# Submitted via: AltoMP3_Maker 3.0
#
DISCID=72093b0a
DTITLE=ZZ-TOP - Recycler
DYEAR=1900
DGENRE=
TTITLE0=Concrete and Steel 
TTITLE1=Lovething 
TTITLE2=Penthouse Eyes 
TTITLE3=Tell It
TTITLE4=My Head's In Mississippi 
TTITLE5=Decision Or Collision 
TTITLE6=Give It Up 
TTITLE7=2000 Blues
TTITLE8=Burger Man 
TTITLE9=Doubleback
EXTD=
EXTT0=
EXTT1=
EXTT2=
EXTT3=
EXTT4=
EXTT5=
EXTT6=
EXTT7=
EXTT8=
EXTT9=
PLAYORDER=
